# xmcd
#
# Track frame offsets: 
#        150
#        20925
#        43305
#        59175
#        81292
#        101004
#        113737
#        127497
#        147610
#        166430
#        182612
#        199972
#        212975
#        230390
#        252140
#
# Disc length: 3415 seconds
#
# Revision: 8
# Processed by: cddbd v1.5.1PL0 Copyright (c) Steve Scherf et al.
# Submitted via: ExactAudioCopy v0.95b1
#
DISCID=f40d550f
DTITLE=Nanci Griffith - The Dust Bowl Symphony
DYEAR=1999
DGENRE=Folk
TTITLE0=Trouble In The Fields
TTITLE1=The Wing And The Wheel
TTITLE2=These Days In An Open Book
TTITLE3=Love At The Five And Dime (Duet With Darius Rucker)
TTITLE4=It's A Hard Life Wherever You Go
TTITLE5=Late Night Grande Hotel
TTITLE6=Tell Me How
TTITLE7=Not My Way Home
TTITLE8=1937 Pre-War Kimball
TTITLE9=Waiting For Love
TTITLE10=Nobody's Angel
TTITLE11=Always Will
TTITLE12=Drops From The Faucet
TTITLE13=Dust Bowl Reprise
TTITLE14=Data Track
EXTD=With the London Symphont Orchestra\nElektra 62418-2
EXTT0=
EXTT1=
EXTT2=
EXTT3=
EXTT4=
EXTT5=
EXTT6=
EXTT7=
EXTT8=
EXTT9=
EXTT10=
EXTT11=
EXTT12=
EXTT13=
EXTT14=
PLAYORDER=
